<svg version="1.1" id="Layer_1" xmlns="http://www.w3.org/2000/svg" xmlns:xlink="http://www.w3.org/1999/xlink" x="0px" y="0px"
	 width="100%" viewBox="0 0 688 800" enable-background="new 0 0 688 800" xml:space="preserve">
<path fill="#000000" opacity="1.000000" stroke="none" 
	d="
M433.468658,801.000000 
	C428.288574,799.758423 423.975372,797.678528 420.031189,794.826782 
	C418.067047,793.406616 416.618073,791.767395 416.736511,789.065308 
	C417.085266,781.110107 425.257721,772.883057 433.196136,772.753052 
	C439.526031,772.649414 445.864288,772.530884 452.188873,772.732422 
	C468.827148,773.262512 485.410583,771.453796 502.036469,771.715332 
	C506.289062,771.782166 509.030426,770.205261 509.808319,765.755920 
	C510.262421,763.158875 511.009735,760.613098 511.654144,757.923279 
	C507.693237,756.264587 504.028137,758.288147 500.309692,758.371887 
	C476.664490,758.904480 453.065399,757.040039 429.424316,757.217041 
	C418.301453,757.300232 412.057404,752.147522 411.718719,743.727966 
	C411.538086,739.237427 411.035858,734.602844 411.872375,730.263306 
	C413.302826,722.842834 412.678528,715.360962 413.411652,707.923462 
	C414.826630,693.568604 414.798157,679.078247 415.745392,664.668823 
	C416.788788,648.795593 418.340179,632.956421 419.495789,617.089661 
	C419.929626,611.132812 420.152405,605.161255 420.564331,599.196655 
	C421.820679,581.004700 423.432465,562.825500 424.394501,544.631775 
	C425.332520,526.892944 427.843994,509.329742 428.885956,491.608490 
	C429.849548,475.220978 430.699890,458.818726 431.847015,442.445160 
	C433.202515,423.097229 434.336487,403.732117 435.820343,384.398346 
	C437.216248,366.210999 438.572601,348.024323 439.675323,329.817932 
	C439.784088,328.021973 439.689880,326.213715 439.689880,323.433777 
	C433.072815,325.244995 427.033112,326.659546 421.147888,328.553955 
	C403.645416,334.187805 386.044739,333.001526 368.569550,329.020905 
	C348.376465,324.421173 329.493195,316.279419 312.167816,304.979187 
	C302.890167,298.928009 293.731537,292.432037 287.142212,283.154999 
	C281.446930,275.136719 278.364227,266.456573 280.501617,256.497253 
	C281.032410,254.023895 280.095947,252.319855 278.055420,251.041855 
	C263.521667,241.939148 252.052139,229.512039 241.106369,216.588867 
	C237.052673,211.802826 233.416031,206.574783 231.097107,200.657089 
	C225.990143,187.624557 236.974121,162.971207 257.176025,162.565262 
	C269.562714,162.316360 279.603455,167.858902 289.667664,173.676727 
	C314.655823,188.121613 338.062347,205.254456 364.497223,217.256790 
	C379.340454,223.996109 394.482544,227.691437 410.848816,224.720245 
	C418.919037,223.255142 425.135101,218.930298 430.774597,213.272354 
	C442.037415,201.972534 452.711853,190.046570 465.751343,180.625397 
	C476.397705,172.933273 488.197998,168.418762 501.274475,167.765915 
	C519.351196,166.863419 537.510254,165.121933 555.518188,166.032379 
	C573.510132,166.942047 591.752075,164.776382 609.554443,169.583237 
	C618.619751,172.031006 626.875427,175.814148 634.716736,180.896927 
	C645.895752,188.143250 654.919434,197.459015 662.348999,208.404251 
	C675.549255,227.850586 683.261597,249.248657 685.446106,272.694427 
	C686.211243,280.905914 687.667603,289.052979 688.904175,297.614746 
	C689.000000,354.354218 689.000000,410.708466 688.655945,467.669250 
	C685.721252,469.480469 686.300354,471.862793 686.292725,473.950378 
	C686.272461,479.504028 685.665161,485.062134 682.862549,489.844055 
	C676.523987,500.658813 671.180420,512.632874 656.937805,515.481750 
	C657.446838,518.863953 658.166138,521.781189 658.281189,524.722107 
	C658.846863,539.172852 657.982788,553.619324 659.103882,568.110168 
	C660.113281,581.156494 660.361084,594.285034 661.192810,607.374756 
	C662.540100,628.577515 663.285706,649.818420 664.289734,671.042969 
	C664.980164,685.637268 665.182129,700.279419 666.596130,714.803467 
	C667.239624,721.412720 666.965576,728.042969 667.982117,734.657532 
	C669.375488,743.724609 665.160339,751.352417 657.937744,754.598450 
	C653.973572,756.380066 649.759583,757.198975 645.361877,757.371155 
	C640.289368,757.569763 635.233215,758.187134 629.625671,758.669434 
	C631.113525,763.707153 630.939392,768.383057 631.489624,772.950989 
	C633.450928,789.235901 622.776306,799.015198 608.282349,799.280029 
	C576.986694,799.851807 545.681763,798.767883 514.379456,800.059204 
	C499.574463,800.669922 484.721283,800.078003 469.890228,800.121643 
	C466.584869,800.131409 463.211945,799.774414 460.000000,801.000000 
	C451.312439,801.000000 442.624878,801.000000 433.468658,801.000000 
M315.175964,236.592987 
	C313.267395,240.099762 311.303802,243.577896 309.461121,247.118958 
	C304.819427,256.038788 305.632141,263.163208 313.178253,270.001923 
	C327.130157,282.645966 343.440613,291.596954 361.030151,298.025665 
	C380.084930,304.989899 399.366241,305.878082 419.175201,300.175934 
	C428.041992,297.623566 436.115570,293.498535 444.687958,290.460449 
	C454.661621,286.925720 469.942383,295.886932 468.446899,308.021179 
	C468.004608,311.609924 467.529724,315.252411 467.336853,318.893768 
	C466.652222,331.819122 466.346344,344.780334 465.123108,357.654449 
	C464.554657,363.637177 464.619232,369.600159 464.175293,375.556885 
	C462.918854,392.416595 461.534119,409.266968 460.327972,426.130157 
	C459.511383,437.546417 458.969727,448.982117 458.200836,460.402130 
	C456.942383,479.093292 455.589325,497.778076 454.295288,516.466858 
	C453.584869,526.726929 453.121582,537.008911 452.178589,547.247009 
	C450.551117,564.916626 448.720367,582.557373 448.219971,600.319275 
	C447.864929,612.921509 447.086090,625.519043 446.195831,638.097473 
	C444.627655,660.255066 442.485962,682.367188 441.094879,704.544312 
	C440.679443,711.166565 440.932922,717.846924 439.980103,724.414673 
	C439.084778,730.586121 438.980652,730.757629 445.066010,730.683105 
	C469.288635,730.386475 493.510986,730.059387 517.732910,729.708740 
	C556.028503,729.154358 594.337585,730.716064 632.631531,728.875305 
	C637.513489,728.640564 638.873413,727.135620 638.784363,722.456909 
	C638.562988,710.822021 637.262939,699.253601 636.860291,687.655396 
	C636.393311,674.204895 635.652344,660.789612 634.853516,647.357971 
	C633.699463,627.953369 633.419067,608.497253 632.729309,589.064453 
	C631.963623,567.493164 630.993958,545.931274 629.960083,524.371582 
	C629.636047,517.615906 627.978394,513.821594 621.723206,511.169586 
	C610.030090,506.212006 604.129761,496.504944 601.668884,484.383148 
	C600.022888,476.274719 598.722168,468.111633 596.924133,460.015137 
	C593.783569,445.873291 594.880920,431.262543 593.917786,416.872223 
	C592.920044,401.964966 593.237732,386.957153 592.919250,371.997711 
	C592.590149,356.536102 591.262390,341.096405 591.672424,325.617859 
	C591.698486,324.632660 591.399597,323.642944 591.365417,322.651428 
	C590.966858,311.093414 588.917725,299.557617 590.731750,287.969482 
	C591.756165,281.425781 597.366882,276.033630 604.109558,275.908813 
	C610.055359,275.798767 613.913818,277.588654 616.819580,285.026337 
	C618.402222,289.077545 619.005493,293.372009 619.273438,297.663330 
	C620.412170,315.901123 620.384888,334.183258 621.090515,352.441010 
	C621.758057,369.712036 622.869507,387.004944 622.335510,404.327942 
	C622.053223,413.484802 622.313965,422.658325 622.323608,431.824310 
	C622.325745,433.825195 622.814880,435.776001 623.009094,437.724670 
	C623.342773,441.073120 624.957153,441.732666 627.941345,441.714508 
	C639.752319,441.642731 651.516663,440.268097 663.347534,440.654846 
	C669.384644,440.852173 669.860901,440.318787 669.643127,434.018646 
	C669.092590,418.086334 668.328491,402.161530 667.703003,386.231628 
	C667.429443,379.264832 667.142456,372.252594 666.450317,365.364410 
	C664.376587,344.728668 663.655212,324.003601 661.726746,303.365387 
	C660.307495,288.176300 658.513855,273.065948 655.253906,258.130615 
	C651.906311,242.793549 643.572693,230.084259 634.653870,217.654587 
	C628.127625,208.559280 619.121643,202.803818 608.579895,199.459106 
	C596.933350,195.763855 584.761108,194.777130 572.723572,194.528870 
	C549.462219,194.049103 526.142456,193.405777 502.952911,196.332520 
	C491.600708,197.765289 481.868195,202.142746 473.558655,210.496902 
	C463.299133,220.811508 453.882233,231.950287 442.234924,240.970322 
	C431.234039,249.489777 419.179596,254.092056 405.533112,254.229828 
	C381.830048,254.469147 360.329254,246.702362 339.802307,235.438370 
	C333.955414,232.229965 329.030334,227.225769 321.907440,225.662384 
	C319.696564,229.183975 317.581238,232.553314 315.175964,236.592987 
M560.497131,771.686584 
	C572.571533,772.465698 584.620178,769.226807 596.736206,771.609558 
	C600.409302,772.331848 602.698303,770.572815 602.737793,766.336060 
	C602.791077,760.604431 601.213684,757.438599 597.166016,757.407471 
	C579.030457,757.267883 560.893250,757.346436 542.756592,757.343140 
	C540.678162,757.342712 538.745361,758.343811 538.673157,760.253601 
	C538.535645,763.887634 534.963562,766.927795 536.855164,770.732605 
	C537.516785,772.063416 539.233459,771.673340 540.529297,771.679504 
	C546.852112,771.709351 553.175171,771.689148 560.497131,771.686584 
M630.599792,482.727234 
	C634.129578,487.098145 639.149109,488.321991 644.304932,488.617645 
	C652.760559,489.102539 659.868591,481.712799 659.681519,473.214569 
	C659.630981,470.922668 659.172485,469.398651 656.437744,469.298859 
	C650.483337,469.081604 644.525208,468.298462 638.586975,468.453430 
	C627.393066,468.745575 625.929688,471.363373 630.599792,482.727234 
M292.424347,208.189163 
	C281.460571,202.096283 271.146179,194.704544 258.905579,190.307220 
	C258.223328,193.853378 259.984131,195.319946 261.266418,196.955597 
	C267.426239,204.812927 274.447327,211.795578 282.121490,218.203476 
	C289.942657,224.734116 289.758545,224.888550 294.690735,216.211563 
	C296.471680,213.078445 296.169800,210.560394 292.424347,208.189163 
z"/>
<path fill="#000000" opacity="1.000000" stroke="none" 
	d="
M1.000000,750.468384 
	C4.308887,743.557251 6.616251,736.688477 11.382569,730.895996 
	C20.554134,719.749939 31.942699,713.799866 46.350170,712.557922 
	C65.653191,710.894043 84.957726,712.201111 104.251915,711.664795 
	C106.734177,711.595764 109.258835,711.823730 112.215919,709.969238 
	C105.189743,705.429565 98.730202,700.671875 92.349693,695.813171 
	C81.769402,687.756348 71.188507,679.644897 62.027199,670.025818 
	C49.454418,656.824829 41.609726,641.469116 40.417515,622.627869 
	C39.500294,608.132446 39.059177,593.622559 39.920189,579.243103 
	C41.277107,556.581543 42.159245,533.886108 44.378830,511.248291 
	C46.736423,487.202972 50.292500,463.394165 57.921135,440.587097 
	C65.402496,418.220398 78.562820,399.250183 101.675575,390.420563 
	C125.500450,381.318878 157.144913,387.602570 175.686157,409.535706 
	C187.237854,423.200714 196.129425,438.439545 203.436600,454.692444 
	C205.935867,460.251465 208.661179,465.708893 211.399139,471.455994 
	C226.893829,461.256287 241.988525,451.600250 256.782349,441.503387 
	C271.870392,431.205750 289.576111,432.631927 301.193665,441.631348 
	C315.107849,452.409882 321.416443,465.707214 317.000092,485.120453 
	C314.707611,495.197510 307.851288,501.922180 301.642700,509.127411 
	C289.504333,523.214355 277.915741,537.777588 265.042938,551.237549 
	C249.199066,567.804138 233.436020,584.399963 212.241302,594.420532 
	C207.715271,596.560425 203.176163,598.550598 198.254303,599.597717 
	C193.920761,600.519653 192.759125,603.239746 193.804291,607.388428 
	C195.615997,614.579895 199.955246,620.296997 204.736237,625.587708 
	C218.460144,640.774719 232.967102,655.234741 246.944489,670.177795 
	C260.522217,684.693665 275.004150,698.583679 284.653015,716.369080 
	C292.490143,730.814819 295.997345,745.908447 291.925629,762.218567 
	C290.476257,768.024170 288.691833,773.692383 285.819458,779.005371 
	C280.293304,789.227112 270.701874,794.050903 260.645203,798.301270 
	C258.655975,799.142029 256.615967,799.862610 254.299683,800.819336 
	C177.312439,801.000000 100.624878,801.000000 23.292362,800.712769 
	C12.073518,792.672974 4.856499,782.531982 1.000000,770.000000 
	C1.000000,763.645569 1.000000,757.291199 1.000000,750.468384 
M106.671806,499.738647 
	C106.713028,495.089081 109.680870,492.507874 113.374611,490.618774 
	C120.693825,486.875427 129.385254,489.788788 135.179596,497.352966 
	C141.220276,505.238708 147.176056,513.249878 153.877991,520.555908 
	C167.121964,534.993652 180.219650,549.507812 190.141739,566.513855 
	C192.133286,569.927246 194.453400,570.094788 197.610870,569.119141 
	C205.917633,566.552612 212.918808,561.650818 218.966782,555.743774 
	C231.281509,543.715942 243.230637,531.304199 255.085449,518.817993 
	C264.475311,508.927979 274.762787,499.870117 283.023895,488.920868 
	C285.747589,485.310944 288.201385,481.572571 289.367645,477.138916 
	C290.646729,472.276245 288.272034,468.803070 284.960663,465.696625 
	C282.045685,462.962097 278.831085,462.968719 275.222229,464.242554 
	C270.551239,465.891327 267.078308,469.352997 262.961151,471.826813 
	C249.727356,479.778412 236.144196,487.214966 224.775192,497.914062 
	C221.838959,500.677368 219.308960,503.526947 218.146576,507.573944 
	C215.913986,515.347046 212.908401,517.165161 205.015015,516.303650 
	C199.916290,515.747192 197.757156,512.058533 195.965286,508.006531 
	C185.979843,485.426361 176.208405,462.733398 163.368057,441.566040 
	C155.530869,428.646423 146.525726,417.285522 129.693466,415.694061 
	C118.555595,414.641022 101.320694,417.660278 94.605972,431.312317 
	C91.815178,436.986420 89.327866,442.723480 87.141869,448.621735 
	C81.885246,462.804993 77.543129,477.177002 76.201653,492.388000 
	C75.023926,505.742218 73.253906,519.038025 72.032990,532.402039 
	C70.569939,548.416382 69.575180,564.459778 68.473900,580.488098 
	C67.699005,591.766174 67.915268,603.158386 68.424728,614.466553 
	C69.023254,627.752014 73.164932,639.643677 83.138123,649.312622 
	C93.417084,659.278015 104.234596,668.545593 115.777191,676.945923 
	C132.790131,689.327637 149.971573,701.479187 167.155548,713.623657 
	C175.092026,719.232666 183.531738,724.098450 184.079559,735.639893 
	C184.312088,740.538635 183.420578,744.192505 178.973038,743.981384 
	C165.715759,743.351990 152.009903,747.692749 139.251236,740.761536 
	C138.439621,740.320618 137.297882,740.368652 136.312607,740.383362 
	C106.681137,740.827332 77.025711,739.198669 47.415226,741.367004 
	C40.475224,741.875244 33.175797,747.341431 31.389820,753.196838 
	C28.868784,761.462219 30.662077,768.792297 36.693886,773.573914 
	C42.061481,777.828979 48.646980,778.512451 55.106361,778.581604 
	C75.296890,778.798035 95.493607,778.861877 115.682510,778.587097 
	C123.362968,778.482544 130.914474,779.663513 138.568939,779.763367 
	C150.329102,779.916626 162.053604,778.890137 173.843704,779.528137 
	C185.806717,780.175476 197.875870,779.035522 209.817657,779.855835 
	C223.953400,780.826843 236.707489,776.571655 249.493988,771.758301 
	C254.510330,769.869995 258.501862,766.700989 260.963928,761.902039 
	C266.589661,750.936523 263.183746,740.472961 258.369690,730.498901 
	C252.821335,719.003418 243.319366,710.301331 235.353897,700.562622 
	C228.021744,691.598206 219.495804,683.621704 211.856705,674.894104 
	C199.819397,661.141541 187.904343,647.272766 176.277435,633.172974 
	C166.650345,621.498352 161.170822,608.226257 163.658997,592.717834 
	C164.608109,586.802063 164.405243,581.746399 160.646973,576.368896 
	C147.106155,556.993835 131.623627,539.239563 116.377510,521.260620 
	C111.359535,515.343262 106.157455,509.249786 106.671806,499.738647 
z"/>
<path fill="#000000" opacity="1.000000" stroke="none" 
	d="
M533.533875,1.000000 
	C545.376038,2.720863 556.306885,5.689396 566.324219,11.645399 
	C581.560974,20.704716 592.575806,33.327805 599.198730,49.760571 
	C602.236511,57.297798 604.558228,64.929329 605.670654,73.127884 
	C606.801758,81.463501 605.577271,89.395920 603.975952,97.269821 
	C601.612671,108.890640 597.083435,119.729187 589.382751,129.036896 
	C575.862915,145.378067 558.917969,155.415604 537.716736,158.437988 
	C511.899475,162.118439 489.445038,153.861938 470.394073,137.658035 
	C454.777893,124.375587 445.707642,106.669449 445.624573,85.280701 
	C445.551910,66.581947 449.330994,49.080097 460.127136,33.437134 
	C466.604248,24.052242 475.102661,17.067335 485.209137,12.076262 
	C491.240601,9.097626 496.912048,5.457553 503.579681,3.587819 
	C508.474579,2.215189 513.359375,1.947922 518.635681,1.161871 
	C523.689270,1.000000 528.378479,1.000000 533.533875,1.000000 
M517.113464,29.511192 
	C509.673981,30.857250 502.864624,33.617512 496.466339,37.740883 
	C479.913239,48.408501 471.168518,71.162498 474.877167,90.155846 
	C479.605774,114.372948 500.617523,131.267410 525.510803,130.919998 
	C553.752441,130.525864 577.246338,108.786087 577.470764,78.985329 
	C577.603821,61.302673 568.027039,48.053871 554.059631,37.798706 
	C543.221008,29.840750 530.855042,28.621693 517.113464,29.511192 
z"/>
<path fill="#000000" opacity="1.000000" stroke="none" 
	d="
M272.553711,283.494843 
	C282.189301,297.299988 287.421631,312.151398 288.412109,328.732910 
	C289.947144,354.430450 278.740356,374.041626 259.859467,389.878021 
	C249.898422,398.232910 237.751404,402.451355 225.027328,404.888153 
	C202.796921,409.145538 181.753342,405.353790 162.997894,393.134857 
	C143.955444,380.728943 133.429047,362.524597 130.462524,339.619873 
	C128.304474,322.957275 130.563278,307.246979 138.834106,293.009186 
	C146.537476,279.748291 156.969650,268.500305 171.174316,261.604553 
	C184.162582,255.299347 197.777222,251.002304 212.368225,251.773804 
	C237.058990,253.079330 257.470032,262.947113 272.553711,283.494843 
M190.043030,375.271332 
	C195.543808,377.185486 201.201721,378.625458 207.014328,378.612152 
	C220.205383,378.582001 232.185883,374.791168 242.415527,366.177734 
	C259.534485,351.763489 264.846130,328.076233 254.326950,307.514862 
	C243.931168,287.194672 218.476532,276.237946 195.865280,282.230682 
	C174.313843,287.942566 158.085541,307.166412 158.389130,329.274292 
	C158.688766,351.093231 169.436661,366.250153 190.043030,375.271332 
z"/>
<path fill="#000000" opacity="1.000000" stroke="none" 
	d="
M481.799438,282.796387 
	C476.647247,271.251038 484.620026,262.594086 495.972839,262.700043 
	C500.304169,262.740479 504.637207,262.654755 508.967499,262.734406 
	C512.343994,262.796509 513.771179,261.271912 513.726868,257.891205 
	C513.624268,250.062103 513.776489,242.229248 513.635315,234.401337 
	C513.583252,231.515533 514.080688,228.761307 514.832825,226.055054 
	C516.532227,219.940216 520.577087,216.862579 526.780762,216.708176 
	C534.583923,216.513947 539.222290,219.195648 541.304016,225.440308 
	C542.506958,229.048904 543.351929,232.772675 543.331543,236.642807 
	C543.293823,243.806534 543.385559,250.971329 543.302002,258.134277 
	C543.265137,261.297363 544.636475,262.726440 547.778687,262.699219 
	C552.942932,262.654449 558.109680,262.616272 563.272095,262.727753 
	C572.513977,262.927277 578.356873,271.044281 575.840454,279.990112 
	C573.257629,289.171875 567.226807,292.416840 558.183350,293.212250 
	C553.255798,293.645630 548.237793,293.617218 543.461853,292.785980 
	C542.502258,293.437347 542.214966,294.294678 542.458496,295.086456 
	C543.813049,299.489807 543.433777,304.013245 543.261597,308.468445 
	C542.663208,323.953735 544.617126,339.371216 544.309448,354.843842 
	C544.142822,363.218872 539.459656,369.899475 532.259583,371.873871 
	C526.369446,373.489075 520.310364,370.765045 517.745544,365.175537 
	C515.716431,360.753326 514.732666,356.044342 514.708984,351.177643 
	C514.657898,340.681824 514.901062,330.179016 514.590454,319.691864 
	C514.364563,312.065857 513.392456,304.466614 513.674377,296.808228 
	C513.785278,293.794800 512.306458,292.180145 509.103577,292.274750 
	C505.774414,292.373108 502.439880,292.326202 499.108154,292.295349 
	C491.803314,292.227753 485.825806,289.628265 481.799438,282.796387 
z"/>
</svg>